<!-- Generated by IcoMoon.io -->
<svg version="1.1" xmlns="http://www.w3.org/2000/svg" width="512" height="512" viewBox="0 0 512 512">
<title></title>
<g id="icomoon-ignore">
</g>
<path d="M426.642 64h-341.334c-35.344 0-64 28.656-64 64v256c0 35.344 28.656 64 64 64h341.334c35.344 0 64-28.656 64-64v-256c0-35.344-28.656-64-64-64zM426.642 106.666c2.446 0 4.762 0.496 6.947 1.254l-177.615 142.090-177.616-142.090c2.192-0.757 4.501-1.254 6.95-1.254h341.334zM426.642 405.334h-341.334c-11.787 0-21.334-9.547-21.334-21.334v-232.944l178.672 142.933c3.893 3.12 8.613 4.678 13.328 4.678s9.434-1.558 13.328-4.678l178.671-142.933v232.944c0 11.788-9.543 21.334-21.33 21.334z"></path>
</svg>
