<!-- Generated by IcoMoon.io -->
<svg version="1.1" xmlns="http://www.w3.org/2000/svg" width="512" height="512" viewBox="0 0 512 512">
<title></title>
<g id="icomoon-ignore">
</g>
<path d="M369.779 136.534h-227.556c-31.289 0-56.889 23.893-56.889 53.096v132.741c0 29.203 25.6 53.096 56.889 53.096h227.556c31.288 0 56.889-23.894 56.889-53.096v-132.741c0-29.203-25.6-53.096-56.889-53.096zM392.534 213.523l-112.355 70.352c-7.111 3.983-15.645 6.637-24.178 6.637s-17.066-2.654-24.178-6.637l-112.355-70.352c-5.689-3.982-7.111-11.946-2.844-18.584 4.266-5.309 12.8-6.637 19.911-2.654l112.355 70.352c4.267 2.654 11.378 2.654 15.645 0l112.355-70.352c7.111-3.983 15.645-2.655 19.911 3.982 2.845 5.31 1.421 13.274-4.267 17.256z"></path>
</svg>
