<!-- Generated by IcoMoon.io -->
<svg version="1.1" xmlns="http://www.w3.org/2000/svg" width="512" height="512" viewBox="0 0 512 512">
<title></title>
<g id="icomoon-ignore">
</g>
<path d="M338.899 312.967c0-1.466-0.133-2.533-0.399-3.2-0.401-1.067-2.966-3.033-7.7-5.9-4.733-2.867-10.632-6.166-17.7-9.901l-10.6-5.8c-0.668-0.401-1.933-1.268-3.799-2.601-1.867-1.333-3.534-2.333-5-3-1.467-0.666-2.867-1-4.2-1-2.399 0-5.533 2.168-9.401 6.5s-7.666 8.7-11.401 13.101c-3.733 4.4-6.666 6.599-8.8 6.599-0.933 0-2.033-0.234-3.299-0.7-1.268-0.467-2.3-0.899-3.101-1.3-0.8-0.399-1.934-1.033-3.399-1.899s-2.399-1.433-2.8-1.7c-13.2-7.334-24.566-15.768-34.099-25.3-9.534-9.534-17.966-20.901-25.299-34.101-0.268-0.399-0.834-1.333-1.7-2.8-0.867-1.466-1.5-2.6-1.901-3.399-0.399-0.798-0.833-1.833-1.299-3.1-0.468-1.267-0.702-2.367-0.702-3.3 0-1.732 1.367-3.966 4.101-6.698 2.732-2.734 5.732-5.301 9-7.701s6.267-5.033 9.001-7.9c2.732-2.867 4.1-5.301 4.1-7.299 0-1.334-0.333-2.734-1-4.2-0.667-1.468-1.667-3.133-3-5s-2.2-3.133-2.6-3.8c-0.401-0.798-1.401-2.7-3-5.701-1.601-2.999-3.267-6.033-5-9.1-1.732-3.066-3.5-6.232-5.299-9.499-1.8-3.267-3.466-5.966-5-8.1-1.532-2.133-2.633-3.333-3.299-3.6-0.667-0.267-1.734-0.4-3.2-0.4-6.4 0-13.134 1.466-20.201 4.4-6.133 2.8-11.467 9.1-16 18.901-4.534 9.799-6.8 18.499-6.8 26.1 0 2.133 0.167 4.4 0.5 6.799s0.667 4.434 1 6.1c0.333 1.667 0.934 3.868 1.8 6.6 0.867 2.734 1.534 4.7 2 5.9s1.3 3.401 2.5 6.601c1.2 3.2 1.934 5.198 2.2 5.999 8 21.868 22.434 43.233 43.3 64.101 20.865 20.865 42.233 35.299 64.099 43.3 0.8 0.266 2.8 1 6 2.2s5.4 2.033 6.599 2.5c1.2 0.466 3.168 1.133 5.9 2 2.734 0.865 4.934 1.466 6.599 1.799 1.668 0.334 3.7 0.668 6.101 1 2.399 0.334 4.666 0.5 6.8 0.5 7.6 0 16.3-2.267 26.1-6.8s16.099-9.866 18.899-16c2.934-7.067 4.4-13.8 4.4-20.2zM390.099 157.566v192c0 15.867-5.634 29.433-16.899 40.7-11.267 11.265-24.834 16.899-40.7 16.899h-192c-15.867 0-29.433-5.634-40.7-16.899-11.266-11.267-16.9-24.834-16.9-40.7v-192c0-15.867 5.633-29.434 16.9-40.7s24.833-16.9 40.7-16.9h192c15.867 0 29.433 5.633 40.7 16.9 11.265 11.267 16.899 24.833 16.899 40.7z"></path>
</svg>
