<!-- Generated by IcoMoon.io -->
<svg version="1.1" xmlns="http://www.w3.org/2000/svg" width="512" height="512" viewBox="0 0 512 512">
<title></title>
<g id="icomoon-ignore">
</g>
<path d="M247.789 68.266c-80.125 0-145.389 66.297-145.389 147.691 0 105.683 145.389 237.621 145.389 237.621s145.391-129.97 145.391-237.621c-0.647-81.394-65.264-147.691-145.391-147.691zM247.789 283.57c-40.063 0-72.371-32.821-72.371-73.518s32.309-73.518 72.371-73.518c40.064 0 72.373 32.821 72.373 73.518s-32.309 73.518-72.373 73.518z"></path>
<path d="M308.533 411.571c14.215 6.564 22.616 15.754 22.616 26.255 0 21.005-37.478 38.072-83.357 38.072s-84.004-17.067-84.004-38.072c0-9.846 8.4-19.034 22.617-26.255-25.201 8.534-41.356 21.661-41.356 36.758 0 25.6 45.879 45.949 102.096 45.949s102.096-20.349 102.096-45.949c0-14.44-16.156-28.225-40.709-36.758z"></path>
</svg>
