<!-- Generated by IcoMoon.io -->
<svg version="1.1" xmlns="http://www.w3.org/2000/svg" width="512" height="512" viewBox="0 0 512 512">
<title></title>
<g id="icomoon-ignore">
</g>
<path d="M256 11.552c-144.226 0-256 100.879-256 237.123 0 71.269 30.596 132.849 80.406 175.396 4.172 3.59 6.696 8.556 6.902 13.918l1.391 43.483c0.463 13.868 15.452 22.87 28.742 17.31l50.788-21.397c4.327-1.818 9.117-2.163 13.649-0.981 23.334 6.149 48.213 9.394 74.122 9.394 144.226 0 256-100.879 256-237.123s-111.772-237.123-256-237.123zM102.297 318.027l75.203-113.915c11.95-18.1 37.602-22.625 55.527-9.787l59.802 42.84c5.511 3.935 13.033 3.885 18.492-0.048l80.767-58.531c10.764-7.821 24.879 4.525 17.615 15.445l-75.152 113.863c-11.949 18.101-37.601 22.625-55.526 9.789l-59.803-42.841c-5.512-3.935-13.032-3.885-18.492 0.050l-80.818 58.579c-10.765 7.823-24.879-4.524-17.617-15.442z"></path>
</svg>
