<!-- Generated by IcoMoon.io -->
<svg version="1.1" xmlns="http://www.w3.org/2000/svg" width="480" height="512" viewBox="0 0 480 512">
<title></title>
<g id="icomoon-ignore">
</g>
<path d="M240 241c66.274 0 120-53.726 120-120s-53.726-120-120-120c-66.274 0-120 53.725-120 120s53.726 120 120 120z"></path>
<path d="M480 451v30c0 7.957-3.161 15.586-8.788 21.212s-13.255 8.788-21.212 8.788h-420c-7.957 0-15.587-3.161-21.213-8.788s-8.787-13.255-8.787-21.212v-30c0-47.74 18.965-93.521 52.721-127.28 33.757-33.757 79.54-52.721 127.28-52.721h120c47.74 0 93.521 18.964 127.279 52.721 33.757 33.758 52.721 79.54 52.721 127.28z"></path>
</svg>
