<!-- Generated by IcoMoon.io -->
<svg version="1.1" xmlns="http://www.w3.org/2000/svg" width="569" height="512" viewBox="0 0 569 512">
<title></title>
<g id="icomoon-ignore">
</g>
<path d="M552.042 96.551h-325.445c-10.596 0-16.629 8.365-13.486 18.701l51.484 153.983c2.536 8.309 11.512 15.041 20.036 15.041h213.367c8.524 0 17.49-6.733 20.015-15.041l44.866-157.619c2.549-8.309-2.302-15.064-10.838-15.064z"></path>
<path d="M256.024 511.372c26.887 0 48.683-22.254 48.683-49.706s-21.796-49.706-48.683-49.706c-26.887 0-48.683 22.254-48.683 49.706s21.796 49.706 48.683 49.706z"></path>
<path d="M462.031 512.001c26.885 0 48.683-22.254 48.683-49.706s-21.798-49.706-48.683-49.706c-26.887 0-48.685 22.254-48.685 49.706s21.798 49.706 48.685 49.706z"></path>
<path d="M520.471 334.861h-284.723l-113.984-334.862h-88.755c-15.229 0-27.567 12.598-27.567 28.146s12.339 28.146 27.567 28.146h49.543l113.984 334.862h323.935c15.229 0 27.567-12.597 27.567-28.147 0-15.546-12.338-28.147-27.567-28.147z"></path>
</svg>
