<!-- Generated by IcoMoon.io -->
<svg version="1.1" xmlns="http://www.w3.org/2000/svg" width="512" height="512" viewBox="0 0 512 512">
<title></title>
<g id="icomoon-ignore">
</g>
<path d="M412.075 0h-312.149c-55.197 0-98.974 43.777-98.974 98.974v314.053c0 55.195 43.777 98.973 98.974 98.973h312.149c55.195 0 98.973-43.778 98.973-98.973v-314.053c0-55.197-43.778-98.974-98.973-98.974zM440.624 59.004h11.421v85.65h-85.65v-85.65h74.229zM183.673 201.755c17.13-22.84 41.874-38.067 72.328-38.067 30.452 0 57.098 15.226 72.327 38.067 11.421 15.226 17.131 32.356 17.131 51.391 0 49.488-39.972 89.458-89.457 89.458-49.488 0-89.459-39.969-89.459-89.457 0-17.131 5.71-36.165 17.13-51.391zM461.563 411.122c0 26.649-20.938 49.488-49.488 49.488h-312.149c-26.647 0-49.487-20.936-49.487-49.488v-209.367h76.134c-5.71 15.226-9.517 34.26-9.517 51.391 0 76.134 62.81 138.942 138.945 138.942 76.132 0 138.942-62.808 138.942-138.942 0-19.034-3.805-36.165-9.515-51.391h76.134v209.367z"></path>
</svg>
