<!-- Generated by IcoMoon.io -->
<svg version="1.1" xmlns="http://www.w3.org/2000/svg" width="512" height="512" viewBox="0 0 512 512">
<title></title>
<g id="icomoon-ignore">
</g>
<path d="M110.254 511.080h-109.32v-364.401h109.32v364.401zM511.097 511.080h-109.32v-194.661c0-50.724-18.077-75.98-53.895-75.98-28.389 0-46.391 14.138-55.425 42.452 0 45.989 0 228.187 0 228.187h-109.322c0 0 1.457-327.96 0-364.401h86.291l6.668 72.881h2.26c22.411-36.441 58.228-61.147 107.353-61.147 37.349 0 67.56 10.386 90.626 36.477 23.211 26.127 34.764 61.185 34.764 110.413v205.776z"></path>
<path d="M55.58 110.24c31.194 0 56.482-24.472 56.482-54.66s-25.288-54.661-56.482-54.661c-31.195 0-56.483 24.473-56.483 54.661s25.288 54.66 56.483 54.66z"></path>
</svg>
