<svg width="12" height="10" viewBox="0 0 12 10" fill="none" xmlns="http://www.w3.org/2000/svg">
<path d="M2.95505 3.99388C3.52174 4.6359 3.92975 5.27011 4.36931 6.11087C5.93238 3.36648 8.17351 1.41706 10.8414 0.104781C11.1016 -0.0228427 11.4051 -0.0335591 11.6732 0.0784766L11.8772 0.163234C12.0231 0.22461 12.0428 0.421403 11.9107 0.509084C8.99053 2.44 7.27272 5.17269 6.02896 8.34769C5.88803 8.70718 5.60518 8.99555 5.24447 9.14168L4.22147 9.55573C3.91793 9.67848 3.57299 9.54306 3.43304 9.24982C2.65741 7.61702 1.59992 6.40898 0.108794 5.11132C-0.0794452 4.94765 -0.0153847 4.64369 0.223117 4.56867L2.45932 3.85749C2.6377 3.80099 2.83186 3.85457 2.95505 3.99388Z" fill="#1F2229"/>
</svg>
