<!-- Generated by IcoMoon.io -->
<svg version="1.1" xmlns="http://www.w3.org/2000/svg" width="512" height="512" viewBox="0 0 512 512">
<title></title>
<g id="icomoon-ignore">
</g>
<path d="M352.044 216.617c0-37.948-13.156-70.41-39.469-97.385-26.31-26.975-57.975-40.461-94.991-40.461s-68.68 13.487-94.992 40.461c-26.311 26.975-39.468 59.435-39.468 97.385s13.156 70.41 39.468 97.385c26.312 26.974 57.975 40.461 94.992 40.461s68.68-13.487 94.991-40.461c26.313-26.975 39.469-59.436 39.469-97.385zM505.71 472.616c0 10.666-3.8 19.897-11.403 27.692-7.606 7.795-16.607 11.692-27.012 11.692-10.805 0-19.809-3.897-27.012-11.692l-102.947-105.23c-35.815 25.435-75.733 38.154-119.752 38.154-28.613 0-55.975-5.692-82.087-17.077-26.112-11.387-48.621-26.769-67.53-46.156-18.908-19.384-33.915-42.461-45.020-69.229s-16.657-54.821-16.657-84.154 5.553-57.385 16.657-84.154c11.105-26.769 26.111-49.846 45.020-69.231s41.418-34.769 67.53-46.154c26.112-11.384 53.474-17.077 82.087-17.077s55.974 5.692 82.087 17.077c26.111 11.384 48.621 26.77 67.53 46.154s33.916 42.462 45.019 69.231c11.104 26.769 16.657 54.821 16.657 84.154 0 45.128-12.404 86.051-37.216 122.769l102.945 105.539c7.404 7.587 11.104 16.818 11.104 27.692z"></path>
</svg>
