<!-- Generated by IcoMoon.io -->
<svg version="1.1" xmlns="http://www.w3.org/2000/svg" width="450" height="512" viewBox="0 0 450 512">
<title></title>
<g id="icomoon-ignore">
</g>
<path d="M450 101.191c-16.591 8.136-34.327 13.63-53.020 16.168 19.073-12.68 33.757-32.759 40.624-56.64-17.834 11.731-37.572 20.289-58.647 24.834-16.879-19.972-40.909-32.441-67.418-32.441-51.017 0-92.309 45.862-92.309 102.396 0 8.031 0.763 15.85 2.385 23.353-76.765-4.227-144.852-45.017-190.338-107.045-7.915 15.11-12.492 32.759-12.492 51.463 0 35.504 16.306 66.888 41.1 85.277-15.163-0.425-29.466-5.074-41.863-12.788 0 0.423 0 0.845 0 1.268 0 49.666 31.85 90.983 74.094 100.389-7.724 2.325-15.925 3.592-24.317 3.592-5.913 0-11.729-0.632-17.355-1.902 11.729 40.685 45.868 70.272 86.3 71.117-31.564 27.475-71.424 43.855-114.718 43.855-7.438 0-14.78-0.527-22.028-1.479 40.813 29.377 89.351 46.284 141.418 46.284 169.931 0 262.812-156.077 262.812-291.442 0-4.439-0.096-8.876-0.288-13.21 18.023-14.475 33.662-32.547 46.058-53.046z"></path>
</svg>
