<!-- Generated by IcoMoon.io -->
<svg version="1.1" xmlns="http://www.w3.org/2000/svg" width="482" height="512" viewBox="0 0 482 512">
<title></title>
<g id="icomoon-ignore">
</g>
<path fill="#80c515" d="M457.592 23.031c-15.438 9.8-30.873 16.036-49.203 20.491-30.873 8.909-59.817 8.018-87.793 1.782-29.908-7.127-55.956-24.054-80.075-40.981-24.119 16.927-50.167 33.854-80.075 40.981-27.013 7.127-55.956 7.127-87.793-1.782-17.365-5.346-32.801-10.691-49.203-20.491-10.613 47.218-18.331 104.234-17.366 153.233 2.895 81.072 32.801 145.216 85.863 210.252 40.519 48.998 91.651 89.979 149.537 121.161 57.885-30.289 109.017-71.27 149.537-121.161 53.062-64.144 82.968-129.181 84.899-209.362 0.964-49.89-7.719-106.907-18.329-154.125zM420.93 172.701c-18.329 16.927-42.448 39.2-67.533 61.471-30.87 28.508-62.709 57.017-83.933 77.508-0.964 0.892-1.93 1.783-1.93 1.783-2.894 2.671-4.824 4.454-7.718 7.126-6.754 7.126-17.365 11.583-27.978 11.583-8.683 0-17.365-3.566-24.119-8.912-23.154-20.489-76.215-70.379-98.405-91.76-12.541-12.472-12.541-31.181 0-42.763 5.788-5.345 14.472-8.909 23.154-8.909s17.365 3.564 24.119 8.909c12.542 10.691 55.956 50.781 66.568 61.471 2.894 2.673 5.788 5.345 10.613 5.345 3.859 0 7.718-2.673 10.613-5.345 21.225-19.6 55.956-52.563 86.827-80.18 16.402-15.145 30.873-28.509 42.451-39.2 7.719-7.127 16.402-10.691 25.082-10.691 2.894 0 6.755 0.891 9.649 1.782 14.471 3.564 24.118 15.146 24.118 29.4-0.964 8.018-4.825 15.145-11.577 21.381z"></path>
</svg>
