<!-- Generated by IcoMoon.io -->
<svg version="1.1" xmlns="http://www.w3.org/2000/svg" width="609" height="512" viewBox="0 0 609 512">
<title></title>
<g id="icomoon-ignore">
</g>
<path d="M304.25 512l-13.128-4.376-4.376-4.376-231.931-223.179c-35.008-30.632-52.513-70.017-52.513-118.154 0-87.522 74.393-161.915 161.915-161.915 56.889 0 109.402 30.633 140.034 78.769v0 0c30.632-48.137 83.145-78.769 140.034-78.769 91.898 0 161.914 74.393 161.914 161.915 0 43.761-17.505 87.522-52.513 118.154l-39.385 39.385-205.675 192.547h-4.376zM308.627 485.743v0 0 0zM164.216 323.829l144.411 135.658 144.411-135.658 74.393-74.393c26.256-21.881 39.385-52.513 39.385-87.522 0-65.641-52.513-118.154-118.154-118.154-43.76 0-78.769 21.88-100.649 56.889l-43.76 61.265-35.009-61.265c-21.881-35.008-61.265-56.889-105.025-56.889-65.641 0-118.154 52.513-118.154 118.154 0 35.008 13.128 65.641 39.385 87.522l78.769 74.393z"></path>
</svg>
