<!-- Generated by IcoMoon.io -->
<svg version="1.1" xmlns="http://www.w3.org/2000/svg" width="536" height="512" viewBox="0 0 536 512">
<title></title>
<g id="icomoon-ignore">
</g>
<path d="M524.078 132.769c-6.123-22.002-24.315-39.404-47.318-45.26-41.721-10.709-209.124-10.709-209.124-10.709s-167.404 0-209.124 10.709c-23.003 5.856-41.195 23.257-47.318 45.26-11.195 39.906-11.195 123.231-11.195 123.231s0 83.326 11.195 123.231c6.122 22.005 24.315 39.406 47.318 45.261 41.719 10.708 209.124 10.708 209.124 10.708s167.403 0 209.124-10.708c23.003-5.856 41.195-23.257 47.318-45.261 11.194-39.906 11.194-123.231 11.194-123.231s0-83.325-11.194-123.231zM214.109 332.8v-153.599l139.066 76.799-139.066 76.8z"></path>
</svg>
